<?xml version="1.0" encoding="UTF-8"?><svg id="covidnomicsLogo" xmlns="http://www.w3.org/2000/svg" xmlns:xlink="http://www.w3.org/1999/xlink" role="img" viewBox="0 0 1173 210.4"><title>Covidnomics</title><defs><style>.covidnomics-1{fill:url(#linear-gradient);}.covidnomics-2{fill:#fff;}.covidnomics-3{fill:#363636;}.covidnomics-4{fill:url(#linear-gradient-2);}.covidnomics-4,.covidnomics-5{mix-blend-mode:multiply;opacity:.38;}.covidnomics-5{fill:none;}.covidnomics-6{isolation:isolate;}</style><linearGradient id="linear-gradient" x1="2046.58" y1="319.18" x2="1956.47" y2="319.18" gradientTransform="translate(-1445.3 -213.98) skewX(-12)" gradientUnits="userSpaceOnUse"><stop offset="0" stop-color="#383838"/><stop offset=".25" stop-color="#303030"/><stop offset=".6" stop-color="#1d1d1d"/><stop offset="1" stop-color="#000"/></linearGradient><linearGradient id="linear-gradient-2" x1="2046.58" y1="317.52" x2="1956.47" y2="317.52" gradientTransform="translate(-1445.3 -213.98) skewX(-12)" gradientUnits="userSpaceOnUse"><stop offset="0" stop-color="#fff"/><stop offset=".09" stop-color="#f7f7f7"/><stop offset=".22" stop-color="#e4e4e4"/><stop offset=".37" stop-color="#c4c4c4"/><stop offset=".54" stop-color="#979797"/><stop offset=".73" stop-color="#5d5d5d"/><stop offset=".93" stop-color="#181818"/><stop offset="1" stop-color="#000"/></linearGradient></defs><g class="covidnomics-6"><g id="Layer_2"><g id="Layer_1-2"><path class="covidnomics-3" d="M511.06,210.4h41.29c5.89-50.06,11.77-100.13,17.66-150.19h-58.95V210.4Z"/><polygon class="covidnomics-2" points="622.49 60.21 605.72 139.04 585.99 60.21 562.46 60.21 530.5 210.4 560.54 210.4 577.5 130.78 595.03 210.4 620.57 210.4 652.53 60.21 622.49 60.21"/><polygon class="covidnomics-2" points="306.52 0 263.92 105.06 266.04 0 234.89 0 240.11 150.19 268.62 150.19 337.72 0 306.52 0"/><path class="covidnomics-2" d="M193.94,0h-30.04c-16.58,0-32.85,13.46-36.38,30.04l-19.19,90.17c-3.49,16.43,6.96,29.83,23.33,29.99h30.36c16.59,0,32.9-13.46,36.38-30.04l19.19-90.16c3.54-16.58-7.06-29.99-23.64-29.99Zm-25.52,120.15h-30.04l19.11-90.12h30.1l-19.17,90.12Z"/><path class="covidnomics-2" d="M354.11,0h29.98l-31.85,150.2h-30.09L354.11,0Z"/><polygon class="covidnomics-5" points="542.98 60.22 511.06 210.4 420.97 210.4 452.89 60.22 542.98 60.22"/><path class="covidnomics-1" d="M542.99,60.2c-36.74,0-69.21-20.07-77.3-60.2-2.13,10.01-29.78,140.11-31.91,150.13,8.09,40.14,40.55,60.27,77.29,60.27l31.92-150.19Z"/><g><path class="covidnomics-2" d="M481.92,205.8c18.45,5.82,32.15-9.18,35.52-25.42,6.38-30.01,12.75-60.01,19.13-90.02-.03-.04-.05-.07-.08-.11,3.71-16.94-4.22-28.87-22.6-34.65-23.75-8.03-42.36-26.56-48.21-55.59h-60.23l-31.89,150.13h60.21c5.85,29.01,24.42,47.64,48.15,55.68Zm-72-85.7l19.17-90.08h30.21c5.85,29.02,24.44,47.56,48.18,55.6-6.38,30.05-12.75,60.1-19.13,90.14-23.75-8.03-42.34-26.64-48.2-55.67h-30.23Z"/><path class="covidnomics-4" d="M536.57,90.36s-.05-.07-.08-.11c3.71-16.94-4.22-28.87-22.6-34.65-23.75-8.03-42.36-26.56-48.21-55.59-2.13,10.02-4.25,20.01-6.38,30.03,5.85,29.02,24.44,47.56,48.18,55.6-6.38,30.05-12.75,60.1-19.13,90.14-23.75-8.03-42.34-26.64-48.2-55.67-2.13,10.02-4.25,20.01-6.38,30.03,5.85,29.01,24.42,47.64,48.15,55.68,18.45,5.82,32.15-9.18,35.52-25.42,6.38-30.01,12.75-60.01,19.13-90.02Z"/></g><path class="covidnomics-2" d="M106.74,45.09l3.19-15.05C113.46,13.46,102.86,0,86.27,0h-30.04C39.65,0,23.39,13.46,19.86,30.04L.68,120.2v-.05c-3.53,16.59,7.07,30.04,23.7,30.04h29.99c16.58,0,32.84-13.46,36.38-30.04l3.21-15.03h-29.99l-3.21,15.04H30.72L49.84,30.04h30.1l-3.24,15.05h30.04Z"/><path class="covidnomics-2" d="M731.92,60.21h-30.04c-16.58,0-32.85,13.46-36.38,30.04l-19.19,90.17c-3.49,16.43,6.96,29.83,23.33,29.99h30.36c16.59,0,32.9-13.46,36.38-30.04l19.19-90.16c3.54-16.58-7.06-29.99-23.64-29.99Zm-25.52,120.15h-30.04l19.11-90.12h30.1l-19.17,90.12Z"/><path class="covidnomics-2" d="M750.81,210.4l31.96-150.19h37.4l9.41,75.1,41.35-75.1h37.4l-31.9,150.19h-30.04l19.12-90.12h0l-34.14,60.08h-22.46l-8.88-60.08h0l-19.18,90.12h-30.04Z"/><path class="covidnomics-2" d="M933.62,60.21h29.98l-31.85,150.2h-30.09l31.96-150.2Z"/><path class="covidnomics-2" d="M1060.78,105.3l3.19-15.05c3.54-16.58-7.06-30.04-23.65-30.04h-30.04c-16.58,0-32.84,13.46-36.37,30.04l-19.18,90.16v-.05c-3.53,16.59,7.07,30.04,23.7,30.04h29.99c16.58,0,32.84-13.46,36.38-30.04l3.21-15.03h-29.99l-3.21,15.04h-30.04l19.12-90.12h30.1l-3.24,15.05h30.04Z"/><path class="covidnomics-2" d="M1169.14,105.24l3.2-14.99c3.48-16.58-7.07-30.04-23.7-30.04h-29.99c-16.58,0-32.9,13.41-36.43,29.99l-6.39,30.1c-1.63,7.69-.33,15.37,4.29,21.23,4.62,5.86,11.68,8.79,19.37,8.79h30.02l-6.33,30.04h-30.1l3.2-15.09h-29.99l-3.21,15.09c-3.54,16.58,7.06,30.04,23.59,30.04h30.09c16.53,0,32.85-13.41,36.38-29.99l6.38-30.1c1.63-7.69,.33-15.37-4.29-21.23-4.62-5.86-11.68-8.79-19.37-8.79h-30.02l6.39-30.04h30.04l-3.18,14.99h30.04Z"/></g></g></g></svg>